# Blender 4.1.1
# www.blender.org
mtllib container.mtl
o Cube
v 0.840243 1.000000 -0.840243
v -0.840243 1.000000 -0.840243
v -0.840243 1.000000 0.840243
v 0.840243 1.000000 0.840243
v 0.840243 -0.840243 1.000000
v 0.840243 0.840243 1.000000
v -0.840243 0.840243 1.000000
v -0.840243 -0.840243 1.000000
v -1.000000 -0.840243 0.840243
v -1.000000 0.840243 0.840243
v -1.000000 0.840243 -0.840243
v -1.000000 -0.840243 -0.840243
v -0.840243 -1.000000 -0.840243
v 0.840243 -1.000000 -0.840243
v 0.840243 -1.000000 0.840243
v -0.840243 -1.000000 0.840243
v 1.000000 -0.840243 -0.840243
v 1.000000 0.840243 -0.840243
v 1.000000 0.840243 0.840243
v 1.000000 -0.840243 0.840243
v -0.840243 -0.840243 -1.000000
v -0.840243 0.840243 -1.000000
v 0.840243 0.840243 -1.000000
v 0.840243 -0.840243 -1.000000
v -1.074357 -1.074357 -1.074357
v -1.074357 -1.074357 1.074357
v 1.074357 -1.074357 -1.074357
v 1.074357 1.074357 -1.074357
v -1.074357 1.074357 1.074357
v 1.074357 1.074357 1.074357
v 1.074357 -1.074357 1.074357
v -1.074357 1.074357 -1.074357
v -0.840243 1.074357 -0.840243
v 0.840243 1.074357 -0.840243
v 0.840243 1.074357 0.840243
v -0.840243 1.074357 0.840243
v 0.840243 0.840243 1.074357
v 0.840243 -0.840243 1.074357
v -0.840243 -0.840243 1.074357
v -0.840243 0.840243 1.074357
v -1.074357 -0.840243 0.840243
v -1.074357 0.840243 0.840243
v -1.074357 -0.840243 -0.840243
v -1.074357 0.840243 -0.840243
v 0.840243 -1.074357 -0.840243
v -0.840243 -1.074357 -0.840243
v -0.840243 -1.074357 0.840243
v 0.840243 -1.074357 0.840243
v 1.074357 0.840243 -0.840243
v 1.074357 -0.840243 -0.840243
v 1.074357 -0.840243 0.840243
v 1.074357 0.840243 0.840243
v -0.840243 0.840243 -1.074357
v -0.840243 -0.840243 -1.074357
v 0.840243 -0.840243 -1.074357
v 0.840243 0.840243 -1.074357
vn -0.0000 1.0000 -0.0000
vn -0.0000 -0.0000 1.0000
vn -1.0000 -0.0000 -0.0000
vn -0.0000 -1.0000 -0.0000
vn 1.0000 -0.0000 -0.0000
vn -0.0000 -0.0000 -1.0000
vt 0.079878 0.079878
vt 0.920122 0.079878
vt 0.920122 0.920122
vt 0.079878 0.920122
vt 0.000000 0.000000
vt 1.000000 0.000000
vt 1.000000 1.000000
vt 0.000000 1.000000
s 0
usemtl Material
f 1/1/1 2/2/1 3/3/1 4/4/1
f 5/1/2 6/2/2 7/3/2 8/4/2
f 9/1/3 10/2/3 11/3/3 12/4/3
f 13/1/4 14/2/4 15/3/4 16/4/4
f 17/1/5 18/2/5 19/3/5 20/4/5
f 21/1/6 22/2/6 23/3/6 24/4/6
f 5/1/1 8/4/1 39/4/1 38/1/1
f 10/2/6 9/1/6 41/1/6 42/2/6
f 1/1/3 4/4/3 35/4/3 34/1/3
f 6/2/3 5/1/3 38/1/3 37/2/3
f 2/2/2 1/1/2 34/1/2 33/2/2
f 24/4/3 23/3/3 56/3/3 55/4/3
f 20/4/6 19/3/6 52/3/6 51/4/6
f 23/3/4 22/2/4 53/2/4 56/3/4
f 16/4/6 15/3/6 48/3/6 47/4/6
f 19/3/4 18/2/4 49/2/4 52/3/4
f 12/4/2 11/3/2 44/3/2 43/4/2
f 21/1/1 24/4/1 55/4/1 54/1/1
f 15/3/3 14/2/3 45/2/3 48/3/3
f 8/4/5 7/3/5 40/3/5 39/4/5
f 17/1/1 20/4/1 51/4/1 50/1/1
f 11/3/4 10/2/4 42/2/4 44/3/4
f 4/4/6 3/3/6 36/3/6 35/4/6
f 22/2/5 21/1/5 54/1/5 53/2/5
f 13/1/5 16/4/5 47/4/5 46/1/5
f 7/3/4 6/2/4 37/2/4 40/3/4
f 18/2/2 17/1/2 50/1/2 49/2/2
f 9/1/1 12/4/1 43/4/1 41/1/1
f 3/3/5 2/2/5 33/2/5 36/3/5
f 14/2/2 13/1/2 46/1/2 45/2/2
f 28/5/1 32/6/1 33/2/1 34/1/1
f 32/6/1 29/7/1 36/3/1 33/2/1
f 29/7/1 30/8/1 35/4/1 36/3/1
f 30/8/1 28/5/1 34/1/1 35/4/1
f 31/5/2 30/6/2 37/2/2 38/1/2
f 30/6/2 29/7/2 40/3/2 37/2/2
f 29/7/2 26/8/2 39/4/2 40/3/2
f 26/8/2 31/5/2 38/1/2 39/4/2
f 26/5/3 29/6/3 42/2/3 41/1/3
f 29/6/3 32/7/3 44/3/3 42/2/3
f 32/7/3 25/8/3 43/4/3 44/3/3
f 25/8/3 26/5/3 41/1/3 43/4/3
f 25/5/4 27/6/4 45/2/4 46/1/4
f 27/6/4 31/7/4 48/3/4 45/2/4
f 31/7/4 26/8/4 47/4/4 48/3/4
f 26/8/4 25/5/4 46/1/4 47/4/4
f 27/5/5 28/6/5 49/2/5 50/1/5
f 28/6/5 30/7/5 52/3/5 49/2/5
f 30/7/5 31/8/5 51/4/5 52/3/5
f 31/8/5 27/5/5 50/1/5 51/4/5
f 25/5/6 32/6/6 53/2/6 54/1/6
f 32/6/6 28/7/6 56/3/6 53/2/6
f 28/7/6 27/8/6 55/4/6 56/3/6
f 27/8/6 25/5/6 54/1/6 55/4/6
